<svg width="104" height="16" viewBox="0 0 104 16" fill="none" xmlns="http://www.w3.org/2000/svg">
<path d="M8.00001 11.5133L12.12 13.9999L11.0267 9.31325L14.6667 6.15992L9.87334 5.75325L8.00001 1.33325L6.12668 5.75325L1.33334 6.15992L4.97334 9.31325L3.88001 13.9999L8.00001 11.5133Z" fill="black"/>
<path d="M30 11.5133L34.12 13.9999L33.0267 9.31325L36.6667 6.15992L31.8733 5.75325L30 1.33325L28.1267 5.75325L23.3333 6.15992L26.9733 9.31325L25.88 13.9999L30 11.5133Z" fill="black"/>
<path d="M52 11.5133L56.12 13.9999L55.0267 9.31325L58.6667 6.15992L53.8733 5.75325L52 1.33325L50.1267 5.75325L45.3333 6.15992L48.9733 9.31325L47.88 13.9999L52 11.5133Z" fill="black"/>
<path d="M74 11.5133L78.12 13.9999L77.0267 9.31325L80.6667 6.15992L75.8733 5.75325L74 1.33325L72.1267 5.75325L67.3333 6.15992L70.9733 9.31325L69.88 13.9999L74 11.5133Z" fill="black"/>
<path d="M96 11.5133L100.12 13.9999L99.0267 9.31325L102.667 6.15992L97.8733 5.75325L96 1.33325L94.1267 5.75325L89.3333 6.15992L92.9733 9.31325L91.88 13.9999L96 11.5133Z" fill="black"/>
</svg>
